<?xml version="1.0" encoding="UTF-8"?>
<svg version="1.1" xmlns="http://www.w3.org/2000/svg" width="40" height="32">
<path d="M0 0 C6.66666667 0 13.33333333 0 20 0 C20.66 1.65 21.32 3.3 22 5 C22 3.35 22 1.7 22 0 C22.66 0 23.32 0 24 0 C24 2.31 24 4.62 24 7 C23.01 7 22.02 7 21 7 C20.67 8.65 20.34 10.3 20 12 C14.72 12 9.44 12 4 12 C3.67 10.35 3.34 8.7 3 7 C2.01 7 1.02 7 0 7 C0 4.69 0 2.38 0 0 Z M6 2 C5.95758277 4.33294775 5.95907063 6.66702567 6 9 C6.98267859 10.20561184 6.98267859 10.20561184 8.84765625 10.09765625 C10.8984375 10.06510417 12.94921875 10.03255208 15 10 C15 7.36 15 4.72 15 2 C12.03 2 9.06 2 6 2 Z " fill="#FFBC5E" transform="translate(4,18)"/>
<path d="M0 0 C1.60875 -0.04125 3.2175 -0.0825 4.875 -0.125 C5.77992187 -0.14820312 6.68484375 -0.17140625 7.6171875 -0.1953125 C10 0 10 0 12 2 C12.1953125 5.0390625 12.1953125 5.0390625 12.125 8.625 C12.10695313 9.81351563 12.08890625 11.00203125 12.0703125 12.2265625 C12.04710937 13.14179688 12.02390625 14.05703125 12 15 C8.04 15 4.08 15 0 15 C0 10.05 0 5.1 0 0 Z M2 2 C2 5.63 2 9.26 2 13 C4.64 13 7.28 13 10 13 C10 10.69 10 8.38 10 6 C8.68 6 7.36 6 6 6 C6 4.68 6 3.36 6 2 C4.68 2 3.36 2 2 2 Z " fill="#FFBC5E" transform="translate(18,2)"/>
<path d="M0 0 C1.60875 -0.04125 3.2175 -0.0825 4.875 -0.125 C5.77992188 -0.14820312 6.68484375 -0.17140625 7.6171875 -0.1953125 C10 0 10 0 12 2 C12.1953125 5.0390625 12.1953125 5.0390625 12.125 8.625 C12.10695313 9.81351563 12.08890625 11.00203125 12.0703125 12.2265625 C12.04710937 13.14179688 12.02390625 14.05703125 12 15 C8.04 15 4.08 15 0 15 C0 10.05 0 5.1 0 0 Z M2 2 C2 5.63 2 9.26 2 13 C4.64 13 7.28 13 10 13 C10 10.69 10 8.38 10 6 C8.68 6 7.36 6 6 6 C6 4.68 6 3.36 6 2 C4.68 2 3.36 2 2 2 Z " fill="#FFBC5E" transform="translate(2,2)"/>
<path d="M0 0 C1.98 0 3.96 0 6 0 C6 0.66 6 1.32 6 2 C4.02 2 2.04 2 0 2 C0 1.34 0 0.68 0 0 Z " fill="#FFDB6E" transform="translate(21,12)"/>
<path d="M0 0 C1.98 0 3.96 0 6 0 C6 0.66 6 1.32 6 2 C4.02 2 2.04 2 0 2 C0 1.34 0 0.68 0 0 Z " fill="#FFDB6E" transform="translate(5,12)"/>
<path d="M0 0 C1.98 0 3.96 0 6 0 C6 0.66 6 1.32 6 2 C4.02 2 2.04 2 0 2 C0 1.34 0 0.68 0 0 Z " fill="#FFDB6E" transform="translate(21,9)"/>
<path d="M0 0 C1.98 0 3.96 0 6 0 C6 0.66 6 1.32 6 2 C4.02 2 2.04 2 0 2 C0 1.34 0 0.68 0 0 Z " fill="#FFDB6E" transform="translate(5,9)"/>
</svg>
